<?xml version="1.0" encoding="UTF-8"?>
<svg xmlns="http://www.w3.org/2000/svg" viewBox="0 0 800 800" width="800" height="800">
  <defs>
    <style>
      text { user-select: none; }
    </style>
  </defs>
  <rect x="0" y="0" width="800" height="800" fill="#ECF0F1" opacity="1" transform="rotate(0 400 400)" />
  <line x1="0" y1="0" x2="0" y2="800" stroke="#34495E" stroke-width="0.5" opacity="0.06" />
  <line x1="40" y1="0" x2="40" y2="800" stroke="#34495E" stroke-width="0.5" opacity="0.06" />
  <line x1="80" y1="0" x2="80" y2="800" stroke="#34495E" stroke-width="0.5" opacity="0.06" />
  <line x1="120" y1="0" x2="120" y2="800" stroke="#34495E" stroke-width="0.5" opacity="0.06" />
  <line x1="160" y1="0" x2="160" y2="800" stroke="#34495E" stroke-width="0.5" opacity="0.06" />
  <line x1="200" y1="0" x2="200" y2="800" stroke="#34495E" stroke-width="0.5" opacity="0.06" />
  <line x1="240" y1="0" x2="240" y2="800" stroke="#34495E" stroke-width="0.5" opacity="0.06" />
  <line x1="280" y1="0" x2="280" y2="800" stroke="#34495E" stroke-width="0.5" opacity="0.06" />
  <line x1="320" y1="0" x2="320" y2="800" stroke="#34495E" stroke-width="0.5" opacity="0.06" />
  <line x1="360" y1="0" x2="360" y2="800" stroke="#34495E" stroke-width="0.5" opacity="0.06" />
  <line x1="400" y1="0" x2="400" y2="800" stroke="#34495E" stroke-width="0.5" opacity="0.06" />
  <line x1="440" y1="0" x2="440" y2="800" stroke="#34495E" stroke-width="0.5" opacity="0.06" />
  <line x1="480" y1="0" x2="480" y2="800" stroke="#34495E" stroke-width="0.5" opacity="0.06" />
  <line x1="520" y1="0" x2="520" y2="800" stroke="#34495E" stroke-width="0.5" opacity="0.06" />
  <line x1="560" y1="0" x2="560" y2="800" stroke="#34495E" stroke-width="0.5" opacity="0.06" />
  <line x1="600" y1="0" x2="600" y2="800" stroke="#34495E" stroke-width="0.5" opacity="0.06" />
  <line x1="640" y1="0" x2="640" y2="800" stroke="#34495E" stroke-width="0.5" opacity="0.06" />
  <line x1="680" y1="0" x2="680" y2="800" stroke="#34495E" stroke-width="0.5" opacity="0.06" />
  <line x1="720" y1="0" x2="720" y2="800" stroke="#34495E" stroke-width="0.5" opacity="0.06" />
  <line x1="760" y1="0" x2="760" y2="800" stroke="#34495E" stroke-width="0.5" opacity="0.06" />
  <line x1="0" y1="0" x2="800" y2="0" stroke="#34495E" stroke-width="0.5" opacity="0.06" />
  <line x1="0" y1="40" x2="800" y2="40" stroke="#34495E" stroke-width="0.5" opacity="0.06" />
  <line x1="0" y1="80" x2="800" y2="80" stroke="#34495E" stroke-width="0.5" opacity="0.06" />
  <line x1="0" y1="120" x2="800" y2="120" stroke="#34495E" stroke-width="0.5" opacity="0.06" />
  <line x1="0" y1="160" x2="800" y2="160" stroke="#34495E" stroke-width="0.5" opacity="0.06" />
  <line x1="0" y1="200" x2="800" y2="200" stroke="#34495E" stroke-width="0.5" opacity="0.06" />
  <line x1="0" y1="240" x2="800" y2="240" stroke="#34495E" stroke-width="0.5" opacity="0.06" />
  <line x1="0" y1="280" x2="800" y2="280" stroke="#34495E" stroke-width="0.5" opacity="0.06" />
  <line x1="0" y1="320" x2="800" y2="320" stroke="#34495E" stroke-width="0.5" opacity="0.06" />
  <line x1="0" y1="360" x2="800" y2="360" stroke="#34495E" stroke-width="0.5" opacity="0.06" />
  <line x1="0" y1="400" x2="800" y2="400" stroke="#34495E" stroke-width="0.5" opacity="0.06" />
  <line x1="0" y1="440" x2="800" y2="440" stroke="#34495E" stroke-width="0.5" opacity="0.06" />
  <line x1="0" y1="480" x2="800" y2="480" stroke="#34495E" stroke-width="0.5" opacity="0.06" />
  <line x1="0" y1="520" x2="800" y2="520" stroke="#34495E" stroke-width="0.5" opacity="0.06" />
  <line x1="0" y1="560" x2="800" y2="560" stroke="#34495E" stroke-width="0.5" opacity="0.06" />
  <line x1="0" y1="600" x2="800" y2="600" stroke="#34495E" stroke-width="0.5" opacity="0.06" />
  <line x1="0" y1="640" x2="800" y2="640" stroke="#34495E" stroke-width="0.5" opacity="0.06" />
  <line x1="0" y1="680" x2="800" y2="680" stroke="#34495E" stroke-width="0.5" opacity="0.06" />
  <line x1="0" y1="720" x2="800" y2="720" stroke="#34495E" stroke-width="0.5" opacity="0.06" />
  <line x1="0" y1="760" x2="800" y2="760" stroke="#34495E" stroke-width="0.5" opacity="0.06" />
  <rect x="179.54040680302785" y="334.36047407667166" width="214.19962817202313" height="212.46834622287852" fill="#95A5A6" opacity="0.15" transform="rotate(-19.685213091360687 286.6402208890394 440.5946471881109)" />
  <circle cx="73.07650821122259" cy="263.6563426497524" r="134.37519151120802" fill="#BDC3C7" opacity="0.15" />
  <polygon points="260.52590149001355,-83.51223545230746 131.97399406451126,139.15273122004064 389.07780891551585,139.15273122004064" fill="#95A5A6" opacity="0.15" transform="rotate(93.67757914906312 260.52590149001355 64.93107566259127)" />
  <circle cx="505.54202601908287" cy="329.5178682379233" r="157.75331034272756" fill="#BDC3C7" opacity="0.15" />
  <line x1="529.1021692867164" y1="776.981295081084" x2="178.7480986161968" y2="467.6342290983615" stroke="#2C3E50" stroke-width="3.269315478687481" opacity="0.3" />
  <line x1="58.18844885988823" y1="316.6703327364918" x2="274.32986094484335" y2="300.5372765242442" stroke="#2C3E50" stroke-width="5.9947221102180706" opacity="0.3" />
  <line x1="752.6468925067799" y1="557.3125359968544" x2="37.61855457853958" y2="413.3996428021694" stroke="#2C3E50" stroke-width="5.14564722756521" opacity="0.3" />
  <line x1="278.9031539761702" y1="661.1184734527762" x2="415.6221427991107" y2="35.93599256964773" stroke="#2C3E50" stroke-width="4.734362221028274" opacity="0.3" />
  <line x1="643.833854385613" y1="135.0760713534141" x2="86.47157086210129" y2="680.3101053182758" stroke="#2C3E50" stroke-width="4.833228127759236" opacity="0.3" />
  <line x1="798.5064620148638" y1="557.2302065224458" x2="598.1501964382246" y2="144.34889949493783" stroke="#2C3E50" stroke-width="4.703651235137054" opacity="0.3" />
  <line x1="3.0781177811040816" y1="592.8527777532238" x2="58.5143016787512" y2="306.8335243283849" stroke="#2C3E50" stroke-width="3.304090845702237" opacity="0.3" />
  <line x1="151.74180086509833" y1="609.8805482987967" x2="8.275072278518945" y2="653.5355731503888" stroke="#2C3E50" stroke-width="2.4424962495552602" opacity="0.3" />
  <g transform="rotate(359.63910073033514 447.3155317006902 74.08511137452095)" opacity="0.7763725727043052">
    <rect x="428.381441261747" y="17.28284005769128" width="37.868180877886445" height="113.60454263365934" fill="#E74C3C" />
    <rect x="390.51326038386054" y="55.151020935577726" width="113.60454263365934" height="37.868180877886445" fill="#E74C3C" />
  </g>
  <circle cx="329.77402273793103" cy="493.9244282650585" r="21.726303328579828" fill="#ECF0F1" opacity="0.79046846641937" />
  <polygon points="507.05723103765797,-10.13902476642724 475.6302214045264,44.29574942490918 538.4842406707895,44.29574942490918" fill="#34495E" opacity="0.7540317718531079" transform="rotate(216.99472101800953 507.05723103765797 26.150824694463708)" />
  <g transform="rotate(132.86641725638566 300.66523428556167 187.83702929221025)" opacity="0.552939809521879">
    <rect x="287.7493134952576" y="149.08926692129796" width="25.8318415806082" height="77.4955247418246" fill="#2C3E50" />
    <rect x="261.91747191464935" y="174.92110850190613" width="77.4955247418246" height="25.8318415806082" fill="#2C3E50" />
  </g>
  <circle cx="797.2952565171978" cy="475.3996732820291" r="47.23799290886102" fill="none" stroke="#E74C3C" stroke-width="3" opacity="0.8423915578383933" />
  <path d="M279.8826523308298,814.7479039745449 A36.985881500175665,36.985881500175665 0 0 1 253.13154119112474,759.9929065616374" fill="none" stroke="#95A5A6" stroke-width="4.59730904772815" opacity="0.9120816183071774" />
  <circle cx="118.35815033837179" cy="689.000486742938" r="32.73644646868027" fill="#2C3E50" opacity="0.9314488794029339" />
  <rect x="74.48783555871059" y="653.3088732169264" width="67.59907390051501" height="44.585724875518586" fill="#95A5A6" opacity="0.8834481079558488" transform="rotate(169.46835353259655 108.28737250896809 675.6017356546856)" />
  <path d="M654.3899877460325,63.8350139199523 A58.8701572359703,58.8701572359703 0 1 1 595.3430385934479,-14.484485373136607" fill="none" stroke="#95A5A6" stroke-width="4.407281494794246" opacity="0.6655015310192252" />
  <polygon points="349.0924813666131,429.40347694195884 243.55966770984458,612.1970340841675 454.62529502338157,612.1970340841675" fill="#95A5A6" opacity="0.9096574905350938" transform="rotate(224.53445280542002 349.0924813666131 551.265848370098)" />
  <circle cx="142.72935114398817" cy="762.0120102451211" r="32.243423917620305" fill="none" stroke="#34495E" stroke-width="3" opacity="0.5327271582867781" />
  <g transform="rotate(298.63113986762033 155.45085709436117 26.699124469118917)" opacity="0.615217896903683">
    <rect x="135.68000310873146" y="-32.61343748777021" width="39.54170797125942" height="118.62512391377825" fill="#2C3E50" />
    <rect x="96.13829513747204" y="6.928270483489207" width="118.62512391377825" height="39.54170797125942" fill="#2C3E50" />
  </g>
  <circle cx="353.8087232862154" cy="453.8452466143866" r="21.737456335508604" fill="#ECF0F1" opacity="0.5266494111918494" />
  <circle cx="241.23865967645278" cy="768.7588334010818" r="21.429253473512187" fill="none" stroke="#34495E" stroke-width="3" opacity="0.9598102146898886" />
  <circle cx="70.1558614313034" cy="374.07612958319396" r="19.37279025660194" fill="none" stroke="#95A5A6" stroke-width="3" opacity="0.5550723244797141" />
  <path d="M415.83472248412085,378.1317191921441 A79.80446667871541,79.80446667871541 0 1 1 404.95508990789517,322.3767497236501" fill="none" stroke="#34495E" stroke-width="4.415372476078423" opacity="0.8660647388002987" />
  <path d="M342.8221465681896,124.12079369016732 A28.538829276463673,28.538829276463673 0 1 1 338.8765969862858,85.66257103166062" fill="none" stroke="#BDC3C7" stroke-width="7.767153828816292" opacity="0.6486760392199913" />
  <g transform="rotate(176.13588123957996 22.347030421334093 579.6577888959222)" opacity="0.6425507224962466">
    <rect x="4.228453014137948" y="525.3020566743337" width="36.23715481439229" height="108.71146444317687" fill="#ECF0F1" />
    <rect x="-32.00870180025434" y="561.539211488726" width="108.71146444317687" height="36.23715481439229" fill="#ECF0F1" />
  </g>
  <path d="M455.671195882206,731.015317494119 A26.164616068397795,26.164616068397795 0 0 1 446.58420795981687,679.6430455938778" fill="none" stroke="#2C3E50" stroke-width="4.635505650573295" opacity="0.5308136654856647" />
  <line x1="239.23508996126128" y1="176.8794306034407" x2="250.7406002028707" y2="280.6595652551995" stroke="#2C3E50" stroke-width="5.844110157304469" opacity="0.7" />
  <line x1="138.90957308442088" y1="379.13608150070905" x2="582.430223287649" y2="413.55164880248526" stroke="#2C3E50" stroke-width="4.469170620774191" opacity="0.8" />
  <line x1="195.46945127553062" y1="549.8832048265923" x2="599.0465759763136" y2="461.7271815570367" stroke="#2C3E50" stroke-width="10.255566615205158" opacity="0.8" />
  <text x="400" y="400" font-family="'Arial Black', 'Impact', sans-serif" font-size="84" font-weight="900" fill="#2C3E50" text-anchor="middle" opacity="0.65" transform="rotate(-5.420799604715034 400 400)">FUTURISTIC</text>
  <text x="450" y="460" font-family="'Arial Black', 'Impact', sans-serif" font-size="33" font-weight="900" fill="#95A5A6" text-anchor="middle" opacity="0.5" transform="rotate(-0.4207996047150342 450 460)">CYBERSECURITY</text>
  <rect x="256.40493879476674" y="619.5023672234971" width="2" height="2" fill="#34495E" opacity="0.05" transform="rotate(0 257.40493879476674 620.5023672234971)" />
  <rect x="566.4169802717904" y="212.72176397329238" width="2" height="2" fill="#34495E" opacity="0.05" transform="rotate(0 567.4169802717904 213.72176397329238)" />
  <rect x="82.9495819478644" y="641.7140001062569" width="2" height="2" fill="#34495E" opacity="0.05" transform="rotate(0 83.9495819478644 642.7140001062569)" />
  <rect x="384.6325478480739" y="280.4121282604551" width="2" height="2" fill="#34495E" opacity="0.05" transform="rotate(0 385.6325478480739 281.4121282604551)" />
  <rect x="386.5384380301783" y="682.2667570510569" width="2" height="2" fill="#34495E" opacity="0.05" transform="rotate(0 387.5384380301783 683.2667570510569)" />
  <rect x="662.3703747667303" y="236.65626687851181" width="2" height="2" fill="#34495E" opacity="0.05" transform="rotate(0 663.3703747667303 237.65626687851181)" />
  <rect x="461.38861655755636" y="275.65103254179724" width="2" height="2" fill="#34495E" opacity="0.05" transform="rotate(0 462.38861655755636 276.65103254179724)" />
  <rect x="223.68918420367157" y="428.1043035043647" width="2" height="2" fill="#34495E" opacity="0.05" transform="rotate(0 224.68918420367157 429.1043035043647)" />
  <rect x="104.4790679832173" y="209.44865201819889" width="2" height="2" fill="#34495E" opacity="0.05" transform="rotate(0 105.4790679832173 210.44865201819889)" />
  <rect x="706.2737986227203" y="183.23314380441633" width="2" height="2" fill="#34495E" opacity="0.05" transform="rotate(0 707.2737986227203 184.23314380441633)" />
  <rect x="337.4744119908368" y="384.34263700254786" width="2" height="2" fill="#34495E" opacity="0.05" transform="rotate(0 338.4744119908368 385.34263700254786)" />
  <rect x="116.56209140004638" y="703.9968667328351" width="2" height="2" fill="#34495E" opacity="0.05" transform="rotate(0 117.56209140004638 704.9968667328351)" />
  <rect x="573.1800149598113" y="653.033220920021" width="2" height="2" fill="#34495E" opacity="0.05" transform="rotate(0 574.1800149598113 654.033220920021)" />
  <rect x="710.6531917840832" y="192.63336402192556" width="2" height="2" fill="#34495E" opacity="0.05" transform="rotate(0 711.6531917840832 193.63336402192556)" />
  <rect x="39.02831842168894" y="600.5601146725379" width="2" height="2" fill="#34495E" opacity="0.05" transform="rotate(0 40.02831842168894 601.5601146725379)" />
  <rect x="313.4969359993695" y="476.1272323495073" width="2" height="2" fill="#34495E" opacity="0.05" transform="rotate(0 314.4969359993695 477.1272323495073)" />
  <rect x="270.0964177656212" y="28.5310223765045" width="2" height="2" fill="#34495E" opacity="0.05" transform="rotate(0 271.0964177656212 29.5310223765045)" />
  <rect x="388.86457225048554" y="590.8289124702171" width="2" height="2" fill="#34495E" opacity="0.05" transform="rotate(0 389.86457225048554 591.8289124702171)" />
  <rect x="84.15488919339955" y="505.75640734884803" width="2" height="2" fill="#34495E" opacity="0.05" transform="rotate(0 85.15488919339955 506.75640734884803)" />
  <rect x="372.60071252766085" y="189.73008063382704" width="2" height="2" fill="#34495E" opacity="0.05" transform="rotate(0 373.60071252766085 190.73008063382704)" />
  <rect x="251.24786893167715" y="547.7905066096667" width="2" height="2" fill="#34495E" opacity="0.05" transform="rotate(0 252.24786893167715 548.7905066096667)" />
  <rect x="781.6565364556519" y="634.8952894645965" width="2" height="2" fill="#34495E" opacity="0.05" transform="rotate(0 782.6565364556519 635.8952894645965)" />
  <rect x="70.304380559899" y="387.8785976180524" width="2" height="2" fill="#34495E" opacity="0.05" transform="rotate(0 71.304380559899 388.8785976180524)" />
  <rect x="211.40424371962533" y="637.5498575711506" width="2" height="2" fill="#34495E" opacity="0.05" transform="rotate(0 212.40424371962533 638.5498575711506)" />
  <rect x="265.2809138096126" y="501.81051355363115" width="2" height="2" fill="#34495E" opacity="0.05" transform="rotate(0 266.2809138096126 502.81051355363115)" />
  <rect x="333.7327583538678" y="308.3240111145014" width="2" height="2" fill="#34495E" opacity="0.05" transform="rotate(0 334.7327583538678 309.3240111145014)" />
  <rect x="413.3352520906682" y="649.1804087183392" width="2" height="2" fill="#34495E" opacity="0.05" transform="rotate(0 414.3352520906682 650.1804087183392)" />
  <rect x="408.42468058886584" y="480.1532742753982" width="2" height="2" fill="#34495E" opacity="0.05" transform="rotate(0 409.42468058886584 481.1532742753982)" />
  <rect x="117.53155088926005" y="793.5527743756661" width="2" height="2" fill="#34495E" opacity="0.05" transform="rotate(0 118.53155088926005 794.5527743756661)" />
  <rect x="620.3144907532992" y="366.3351093340514" width="2" height="2" fill="#34495E" opacity="0.05" transform="rotate(0 621.3144907532992 367.3351093340514)" />
  <rect x="536.5766662490965" y="664.0347042735747" width="2" height="2" fill="#34495E" opacity="0.05" transform="rotate(0 537.5766662490965 665.0347042735747)" />
  <rect x="154.72800195094385" y="16.241807866897854" width="2" height="2" fill="#34495E" opacity="0.05" transform="rotate(0 155.72800195094385 17.241807866897854)" />
  <rect x="684.0877320347558" y="520.7544104477284" width="2" height="2" fill="#34495E" opacity="0.05" transform="rotate(0 685.0877320347558 521.7544104477284)" />
  <rect x="123.70306386698576" y="631.1896314451448" width="2" height="2" fill="#34495E" opacity="0.05" transform="rotate(0 124.70306386698576 632.1896314451448)" />
  <rect x="709.8909888206728" y="286.74598864436757" width="2" height="2" fill="#34495E" opacity="0.05" transform="rotate(0 710.8909888206728 287.74598864436757)" />
  <rect x="55.491515075669504" y="2.964201197718317" width="2" height="2" fill="#34495E" opacity="0.05" transform="rotate(0 56.491515075669504 3.964201197718317)" />
  <rect x="575.8518617078317" y="8.74043405259504" width="2" height="2" fill="#34495E" opacity="0.05" transform="rotate(0 576.8518617078317 9.74043405259504)" />
  <rect x="59.84238666944262" y="537.5021403044235" width="2" height="2" fill="#34495E" opacity="0.05" transform="rotate(0 60.84238666944262 538.5021403044235)" />
  <rect x="338.73628851462536" y="9.362906964813105" width="2" height="2" fill="#34495E" opacity="0.05" transform="rotate(0 339.73628851462536 10.362906964813105)" />
  <rect x="181.56635523344536" y="326.22896254207683" width="2" height="2" fill="#34495E" opacity="0.05" transform="rotate(0 182.56635523344536 327.22896254207683)" />
  <rect x="452.60329797226075" y="93.23624821687962" width="2" height="2" fill="#34495E" opacity="0.05" transform="rotate(0 453.60329797226075 94.23624821687962)" />
  <rect x="654.8814460297305" y="327.55321458157925" width="2" height="2" fill="#34495E" opacity="0.05" transform="rotate(0 655.8814460297305 328.55321458157925)" />
  <rect x="703.2288376016609" y="569.4907450511797" width="2" height="2" fill="#34495E" opacity="0.05" transform="rotate(0 704.2288376016609 570.4907450511797)" />
  <rect x="571.0399858120456" y="121.01686562435164" width="2" height="2" fill="#34495E" opacity="0.05" transform="rotate(0 572.0399858120456 122.01686562435164)" />
  <rect x="587.0608519266967" y="53.180146229728166" width="2" height="2" fill="#34495E" opacity="0.05" transform="rotate(0 588.0608519266967 54.180146229728166)" />
  <rect x="671.7368066012247" y="496.60194863020484" width="2" height="2" fill="#34495E" opacity="0.05" transform="rotate(0 672.7368066012247 497.60194863020484)" />
  <rect x="147.2056107938303" y="408.10392881000973" width="2" height="2" fill="#34495E" opacity="0.05" transform="rotate(0 148.2056107938303 409.10392881000973)" />
  <rect x="180.79869807250768" y="141.69345017096342" width="2" height="2" fill="#34495E" opacity="0.05" transform="rotate(0 181.79869807250768 142.69345017096342)" />
  <rect x="478.9452876148152" y="593.5358123373092" width="2" height="2" fill="#34495E" opacity="0.05" transform="rotate(0 479.9452876148152 594.5358123373092)" />
  <rect x="186.65511146808396" y="288.19845213745685" width="2" height="2" fill="#34495E" opacity="0.05" transform="rotate(0 187.65511146808396 289.19845213745685)" />
  <rect x="117.28678665060708" y="577.3585253808085" width="2" height="2" fill="#34495E" opacity="0.05" transform="rotate(0 118.28678665060708 578.3585253808085)" />
  <rect x="688.0901120342525" y="182.32152130974492" width="2" height="2" fill="#34495E" opacity="0.05" transform="rotate(0 689.0901120342525 183.32152130974492)" />
  <rect x="519.0418224127595" y="678.1048210053949" width="2" height="2" fill="#34495E" opacity="0.05" transform="rotate(0 520.0418224127595 679.1048210053949)" />
  <rect x="215.77558205830294" y="39.4963506701161" width="2" height="2" fill="#34495E" opacity="0.05" transform="rotate(0 216.77558205830294 40.4963506701161)" />
  <rect x="451.9382464820375" y="298.4047421017673" width="2" height="2" fill="#34495E" opacity="0.05" transform="rotate(0 452.9382464820375 299.4047421017673)" />
  <rect x="742.0856751366717" y="346.9736498657087" width="2" height="2" fill="#34495E" opacity="0.05" transform="rotate(0 743.0856751366717 347.9736498657087)" />
  <rect x="103.26262659003554" y="212.33913754400314" width="2" height="2" fill="#34495E" opacity="0.05" transform="rotate(0 104.26262659003554 213.33913754400314)" />
  <rect x="791.6925176958769" y="176.56528544066597" width="2" height="2" fill="#34495E" opacity="0.05" transform="rotate(0 792.6925176958769 177.56528544066597)" />
  <rect x="720.534074660515" y="769.1994273963383" width="2" height="2" fill="#34495E" opacity="0.05" transform="rotate(0 721.534074660515 770.1994273963383)" />
  <rect x="665.4431633337966" y="570.0446722493612" width="2" height="2" fill="#34495E" opacity="0.05" transform="rotate(0 666.4431633337966 571.0446722493612)" />
  <rect x="196.70932390650486" y="576.1536182314514" width="2" height="2" fill="#34495E" opacity="0.05" transform="rotate(0 197.70932390650486 577.1536182314514)" />
  <rect x="690.0177955371369" y="59.7034130384455" width="2" height="2" fill="#34495E" opacity="0.05" transform="rotate(0 691.0177955371369 60.7034130384455)" />
  <rect x="412.4190586647995" y="422.3185696691085" width="2" height="2" fill="#34495E" opacity="0.05" transform="rotate(0 413.4190586647995 423.3185696691085)" />
  <rect x="5.869180524225621" y="786.5641904963563" width="2" height="2" fill="#34495E" opacity="0.05" transform="rotate(0 6.869180524225621 787.5641904963563)" />
  <rect x="747.7354910102988" y="606.7385093790336" width="2" height="2" fill="#34495E" opacity="0.05" transform="rotate(0 748.7354910102988 607.7385093790336)" />
  <rect x="405.94337126378514" y="678.7499060572009" width="2" height="2" fill="#34495E" opacity="0.05" transform="rotate(0 406.94337126378514 679.7499060572009)" />
  <rect x="375.9711894150756" y="32.769798495054665" width="2" height="2" fill="#34495E" opacity="0.05" transform="rotate(0 376.9711894150756 33.769798495054665)" />
  <rect x="737.6816592965465" y="152.50907208596104" width="2" height="2" fill="#34495E" opacity="0.05" transform="rotate(0 738.6816592965465 153.50907208596104)" />
  <rect x="152.00915731303607" y="31.37194813028256" width="2" height="2" fill="#34495E" opacity="0.05" transform="rotate(0 153.00915731303607 32.37194813028256)" />
  <rect x="380.80377866998407" y="798.3974521975958" width="2" height="2" fill="#34495E" opacity="0.05" transform="rotate(0 381.80377866998407 799.3974521975958)" />
  <rect x="707.6641607814618" y="75.80488400436121" width="2" height="2" fill="#34495E" opacity="0.05" transform="rotate(0 708.6641607814618 76.80488400436121)" />
  <rect x="113.37235926496152" y="115.11595065591762" width="2" height="2" fill="#34495E" opacity="0.05" transform="rotate(0 114.37235926496152 116.11595065591762)" />
  <rect x="766.5753062736651" y="750.2324627596495" width="2" height="2" fill="#34495E" opacity="0.05" transform="rotate(0 767.5753062736651 751.2324627596495)" />
  <rect x="78.63862944735183" y="153.50475501117873" width="2" height="2" fill="#34495E" opacity="0.05" transform="rotate(0 79.63862944735183 154.50475501117873)" />
  <rect x="691.1298695698217" y="734.7322368842391" width="2" height="2" fill="#34495E" opacity="0.05" transform="rotate(0 692.1298695698217 735.7322368842391)" />
  <rect x="365.169369328108" y="133.19372500600147" width="2" height="2" fill="#34495E" opacity="0.05" transform="rotate(0 366.169369328108 134.19372500600147)" />
  <rect x="473.91837343431973" y="369.21147116674376" width="2" height="2" fill="#34495E" opacity="0.05" transform="rotate(0 474.91837343431973 370.21147116674376)" />
  <rect x="312.7551137266576" y="94.40903405063065" width="2" height="2" fill="#34495E" opacity="0.05" transform="rotate(0 313.7551137266576 95.40903405063065)" />
  <rect x="786.2209159848794" y="558.729408066424" width="2" height="2" fill="#34495E" opacity="0.05" transform="rotate(0 787.2209159848794 559.729408066424)" />
  <rect x="56.599605655437244" y="447.43605974303466" width="2" height="2" fill="#34495E" opacity="0.05" transform="rotate(0 57.599605655437244 448.43605974303466)" />
  <rect x="696.0247482862382" y="382.7257827815427" width="2" height="2" fill="#34495E" opacity="0.05" transform="rotate(0 697.0247482862382 383.7257827815427)" />
  <rect x="22.290499327306286" y="82.23852405376698" width="2" height="2" fill="#34495E" opacity="0.05" transform="rotate(0 23.290499327306286 83.23852405376698)" />
  <rect x="268.07310308052064" y="170.65558959046743" width="2" height="2" fill="#34495E" opacity="0.05" transform="rotate(0 269.07310308052064 171.65558959046743)" />
  <rect x="684.0513132242605" y="700.7338849596525" width="2" height="2" fill="#34495E" opacity="0.05" transform="rotate(0 685.0513132242605 701.7338849596525)" />
  <rect x="458.44527288769495" y="206.5300971750473" width="2" height="2" fill="#34495E" opacity="0.05" transform="rotate(0 459.44527288769495 207.5300971750473)" />
  <rect x="298.7746326948457" y="434.2249755827303" width="2" height="2" fill="#34495E" opacity="0.05" transform="rotate(0 299.7746326948457 435.2249755827303)" />
  <rect x="116.16793743245488" y="624.8641142213867" width="2" height="2" fill="#34495E" opacity="0.05" transform="rotate(0 117.16793743245488 625.8641142213867)" />
  <rect x="528.3365643882046" y="8.487896250674478" width="2" height="2" fill="#34495E" opacity="0.05" transform="rotate(0 529.3365643882046 9.487896250674478)" />
  <rect x="504.35774282188106" y="260.5295047770556" width="2" height="2" fill="#34495E" opacity="0.05" transform="rotate(0 505.35774282188106 261.5295047770556)" />
  <rect x="462.69243798747016" y="119.01615451067131" width="2" height="2" fill="#34495E" opacity="0.05" transform="rotate(0 463.69243798747016 120.01615451067131)" />
  <rect x="753.3951286118" y="415.0149547529908" width="2" height="2" fill="#34495E" opacity="0.05" transform="rotate(0 754.3951286118 416.0149547529908)" />
  <rect x="556.2537602512757" y="78.92105543960841" width="2" height="2" fill="#34495E" opacity="0.05" transform="rotate(0 557.2537602512757 79.92105543960841)" />
  <rect x="658.6294065831763" y="501.5919865345563" width="2" height="2" fill="#34495E" opacity="0.05" transform="rotate(0 659.6294065831763 502.5919865345563)" />
  <rect x="590.0464176642816" y="1.9883427773575164" width="2" height="2" fill="#34495E" opacity="0.05" transform="rotate(0 591.0464176642816 2.9883427773575164)" />
  <rect x="235.11508876344072" y="731.8872252320608" width="2" height="2" fill="#34495E" opacity="0.05" transform="rotate(0 236.11508876344072 732.8872252320608)" />
  <rect x="772.1501298183924" y="183.39108940758535" width="2" height="2" fill="#34495E" opacity="0.05" transform="rotate(0 773.1501298183924 184.39108940758535)" />
  <rect x="41.879465626990296" y="6.360913814595182" width="2" height="2" fill="#34495E" opacity="0.05" transform="rotate(0 42.879465626990296 7.360913814595182)" />
  <rect x="88.9191521538699" y="340.55883780600476" width="2" height="2" fill="#34495E" opacity="0.05" transform="rotate(0 89.9191521538699 341.55883780600476)" />
  <rect x="88.22143396554083" y="571.1916798192989" width="2" height="2" fill="#34495E" opacity="0.05" transform="rotate(0 89.22143396554083 572.1916798192989)" />
  <rect x="619.4842300888813" y="776.7029909362791" width="2" height="2" fill="#34495E" opacity="0.05" transform="rotate(0 620.4842300888813 777.7029909362791)" />
  <rect x="134.54157508316953" y="4.067549110405974" width="2" height="2" fill="#34495E" opacity="0.05" transform="rotate(0 135.54157508316953 5.067549110405974)" />
  <rect x="326.03580046585665" y="529.4984524439783" width="2" height="2" fill="#34495E" opacity="0.05" transform="rotate(0 327.03580046585665 530.4984524439783)" />
  <rect x="400.2034830861267" y="91.38321357112919" width="2" height="2" fill="#34495E" opacity="0.05" transform="rotate(0 401.2034830861267 92.38321357112919)" />
  <rect x="232.38844634787844" y="567.4215180257851" width="2" height="2" fill="#34495E" opacity="0.05" transform="rotate(0 233.38844634787844 568.4215180257851)" />
  <rect x="290.92634271153395" y="759.3435453156344" width="2" height="2" fill="#34495E" opacity="0.05" transform="rotate(0 291.92634271153395 760.3435453156344)" />
  <rect x="103.32659913770077" y="296.2440152410986" width="2" height="2" fill="#34495E" opacity="0.05" transform="rotate(0 104.32659913770077 297.2440152410986)" />
  <rect x="158.20875786203163" y="221.47336234838545" width="2" height="2" fill="#34495E" opacity="0.05" transform="rotate(0 159.20875786203163 222.47336234838545)" />
  <rect x="137.23149209684493" y="638.1836948539558" width="2" height="2" fill="#34495E" opacity="0.05" transform="rotate(0 138.23149209684493 639.1836948539558)" />
  <rect x="103.2838294523032" y="305.0334454292975" width="2" height="2" fill="#34495E" opacity="0.05" transform="rotate(0 104.2838294523032 306.0334454292975)" />
  <rect x="784.4893634283192" y="746.2108706930212" width="2" height="2" fill="#34495E" opacity="0.05" transform="rotate(0 785.4893634283192 747.2108706930212)" />
  <rect x="438.10548364140686" y="118.84280222441134" width="2" height="2" fill="#34495E" opacity="0.05" transform="rotate(0 439.10548364140686 119.84280222441134)" />
  <rect x="204.18090880945812" y="416.01131083816557" width="2" height="2" fill="#34495E" opacity="0.05" transform="rotate(0 205.18090880945812 417.01131083816557)" />
  <rect x="615.8660497087674" y="625.0071839953324" width="2" height="2" fill="#34495E" opacity="0.05" transform="rotate(0 616.8660497087674 626.0071839953324)" />
  <rect x="271.55198591564596" y="458.10537833210674" width="2" height="2" fill="#34495E" opacity="0.05" transform="rotate(0 272.55198591564596 459.10537833210674)" />
  <rect x="43.545088368362066" y="477.0538502552206" width="2" height="2" fill="#34495E" opacity="0.05" transform="rotate(0 44.545088368362066 478.0538502552206)" />
  <rect x="248.76556607167367" y="692.623421338532" width="2" height="2" fill="#34495E" opacity="0.05" transform="rotate(0 249.76556607167367 693.623421338532)" />
  <rect x="388.9894704308802" y="486.9725854338548" width="2" height="2" fill="#34495E" opacity="0.05" transform="rotate(0 389.9894704308802 487.9725854338548)" />
  <rect x="631.4349382723298" y="229.23741383227457" width="2" height="2" fill="#34495E" opacity="0.05" transform="rotate(0 632.4349382723298 230.23741383227457)" />
  <rect x="395.02470372128874" y="683.6629638177488" width="2" height="2" fill="#34495E" opacity="0.05" transform="rotate(0 396.02470372128874 684.6629638177488)" />
  <rect x="683.4381617334294" y="94.7488468360968" width="2" height="2" fill="#34495E" opacity="0.05" transform="rotate(0 684.4381617334294 95.7488468360968)" />
  <rect x="13.097512166271338" y="525.2878652245943" width="2" height="2" fill="#34495E" opacity="0.05" transform="rotate(0 14.097512166271338 526.2878652245943)" />
  <rect x="572.513769514047" y="470.83286840255204" width="2" height="2" fill="#34495E" opacity="0.05" transform="rotate(0 573.513769514047 471.83286840255204)" />
  <rect x="468.9496639345189" y="228.03324093763558" width="2" height="2" fill="#34495E" opacity="0.05" transform="rotate(0 469.9496639345189 229.03324093763558)" />
  <rect x="19.13772132693271" y="204.4386741249912" width="2" height="2" fill="#34495E" opacity="0.05" transform="rotate(0 20.13772132693271 205.4386741249912)" />
  <rect x="672.8230487259158" y="573.7741292858901" width="2" height="2" fill="#34495E" opacity="0.05" transform="rotate(0 673.8230487259158 574.7741292858901)" />
  <rect x="771.1816072396891" y="53.346148518227544" width="2" height="2" fill="#34495E" opacity="0.05" transform="rotate(0 772.1816072396891 54.346148518227544)" />
  <rect x="186.6960065874029" y="359.1469206752132" width="2" height="2" fill="#34495E" opacity="0.05" transform="rotate(0 187.6960065874029 360.1469206752132)" />
  <rect x="416.85209935923393" y="129.3787550482384" width="2" height="2" fill="#34495E" opacity="0.05" transform="rotate(0 417.85209935923393 130.3787550482384)" />
  <rect x="761.0509063957843" y="448.5278741569556" width="2" height="2" fill="#34495E" opacity="0.05" transform="rotate(0 762.0509063957843 449.5278741569556)" />
  <rect x="448.41165683428096" y="601.772676920931" width="2" height="2" fill="#34495E" opacity="0.05" transform="rotate(0 449.41165683428096 602.772676920931)" />
  <rect x="253.67297256683767" y="393.4178822658532" width="2" height="2" fill="#34495E" opacity="0.05" transform="rotate(0 254.67297256683767 394.4178822658532)" />
  <rect x="489.1804776362098" y="523.2022074338054" width="2" height="2" fill="#34495E" opacity="0.05" transform="rotate(0 490.1804776362098 524.2022074338054)" />
  <rect x="142.98036492964727" y="180.73348705208244" width="2" height="2" fill="#34495E" opacity="0.05" transform="rotate(0 143.98036492964727 181.73348705208244)" />
  <rect x="396.3197021736577" y="240.9613911623511" width="2" height="2" fill="#34495E" opacity="0.05" transform="rotate(0 397.3197021736577 241.9613911623511)" />
  <rect x="48.38550557577645" y="672.5041458086353" width="2" height="2" fill="#34495E" opacity="0.05" transform="rotate(0 49.38550557577645 673.5041458086353)" />
  <rect x="151.89586639215608" y="255.80191431934992" width="2" height="2" fill="#34495E" opacity="0.05" transform="rotate(0 152.89586639215608 256.8019143193499)" />
  <rect x="70.18765752906624" y="499.4757459730552" width="2" height="2" fill="#34495E" opacity="0.05" transform="rotate(0 71.18765752906624 500.4757459730552)" />
  <rect x="454.72660503693083" y="790.9272452795243" width="2" height="2" fill="#34495E" opacity="0.05" transform="rotate(0 455.72660503693083 791.9272452795243)" />
  <rect x="761.4967528640983" y="171.12037170937293" width="2" height="2" fill="#34495E" opacity="0.05" transform="rotate(0 762.4967528640983 172.12037170937293)" />
  <rect x="725.5076043134341" y="133.643024818423" width="2" height="2" fill="#34495E" opacity="0.05" transform="rotate(0 726.5076043134341 134.643024818423)" />
  <rect x="344.68847018310066" y="364.55231913471414" width="2" height="2" fill="#34495E" opacity="0.05" transform="rotate(0 345.68847018310066 365.55231913471414)" />
  <rect x="237.7208052756546" y="412.16370808243835" width="2" height="2" fill="#34495E" opacity="0.05" transform="rotate(0 238.7208052756546 413.16370808243835)" />
  <rect x="184.8905640153425" y="754.8503616719624" width="2" height="2" fill="#34495E" opacity="0.05" transform="rotate(0 185.8905640153425 755.8503616719624)" />
  <rect x="286.8238574561718" y="70.07545346163107" width="2" height="2" fill="#34495E" opacity="0.05" transform="rotate(0 287.8238574561718 71.07545346163107)" />
  <rect x="133.00044185784657" y="349.2862657525778" width="2" height="2" fill="#34495E" opacity="0.05" transform="rotate(0 134.00044185784657 350.2862657525778)" />
  <rect x="710.2208211808979" y="500.95526475947236" width="2" height="2" fill="#34495E" opacity="0.05" transform="rotate(0 711.2208211808979 501.95526475947236)" />
  <rect x="750.7339928184482" y="487.95955714023665" width="2" height="2" fill="#34495E" opacity="0.05" transform="rotate(0 751.7339928184482 488.95955714023665)" />
  <rect x="270.5141207833109" y="105.64638043419608" width="2" height="2" fill="#34495E" opacity="0.05" transform="rotate(0 271.5141207833109 106.64638043419608)" />
  <rect x="30.20566497701352" y="673.3385355848211" width="2" height="2" fill="#34495E" opacity="0.05" transform="rotate(0 31.20566497701352 674.3385355848211)" />
  <rect x="214.53774855810633" y="434.6899156539445" width="2" height="2" fill="#34495E" opacity="0.05" transform="rotate(0 215.53774855810633 435.6899156539445)" />
  <rect x="3" y="3" width="794" height="794" fill="none" stroke="#34495E" stroke-width="6" />
  <rect x="15" y="15" width="770" height="770" fill="none" stroke="#2C3E50" stroke-width="2" />
</svg>