<?xml version="1.0" encoding="UTF-8"?>
<svg xmlns="http://www.w3.org/2000/svg" viewBox="0 0 800 800" width="800" height="800">
  <defs>
    <style>
      @import url('https://fonts.googleapis.com/css2?family=Oswald:wght@700;900&amp;display=swap');
      text { font-family: 'Oswald', 'Arial Black', sans-serif; user-select: none; }
    </style>
  </defs>
  <rect width="800" height="800" fill="#FFFFFF" />
  <line x1="0" y1="0" x2="0" y2="800" stroke="#1B4DFF" stroke-width="1" opacity="0.1" />
  <line x1="40" y1="0" x2="40" y2="800" stroke="#1B4DFF" stroke-width="1" opacity="0.1" />
  <line x1="80" y1="0" x2="80" y2="800" stroke="#1B4DFF" stroke-width="1" opacity="0.1" />
  <line x1="120" y1="0" x2="120" y2="800" stroke="#1B4DFF" stroke-width="1" opacity="0.1" />
  <line x1="160" y1="0" x2="160" y2="800" stroke="#1B4DFF" stroke-width="1" opacity="0.1" />
  <line x1="200" y1="0" x2="200" y2="800" stroke="#1B4DFF" stroke-width="1" opacity="0.1" />
  <line x1="240" y1="0" x2="240" y2="800" stroke="#1B4DFF" stroke-width="1" opacity="0.1" />
  <line x1="280" y1="0" x2="280" y2="800" stroke="#1B4DFF" stroke-width="1" opacity="0.1" />
  <line x1="320" y1="0" x2="320" y2="800" stroke="#1B4DFF" stroke-width="1" opacity="0.1" />
  <line x1="360" y1="0" x2="360" y2="800" stroke="#1B4DFF" stroke-width="1" opacity="0.1" />
  <line x1="400" y1="0" x2="400" y2="800" stroke="#1B4DFF" stroke-width="1" opacity="0.1" />
  <line x1="440" y1="0" x2="440" y2="800" stroke="#1B4DFF" stroke-width="1" opacity="0.1" />
  <line x1="480" y1="0" x2="480" y2="800" stroke="#1B4DFF" stroke-width="1" opacity="0.1" />
  <line x1="520" y1="0" x2="520" y2="800" stroke="#1B4DFF" stroke-width="1" opacity="0.1" />
  <line x1="560" y1="0" x2="560" y2="800" stroke="#1B4DFF" stroke-width="1" opacity="0.1" />
  <line x1="600" y1="0" x2="600" y2="800" stroke="#1B4DFF" stroke-width="1" opacity="0.1" />
  <line x1="640" y1="0" x2="640" y2="800" stroke="#1B4DFF" stroke-width="1" opacity="0.1" />
  <line x1="680" y1="0" x2="680" y2="800" stroke="#1B4DFF" stroke-width="1" opacity="0.1" />
  <line x1="720" y1="0" x2="720" y2="800" stroke="#1B4DFF" stroke-width="1" opacity="0.1" />
  <line x1="760" y1="0" x2="760" y2="800" stroke="#1B4DFF" stroke-width="1" opacity="0.1" />
  <line x1="0" y1="0" x2="800" y2="0" stroke="#1B4DFF" stroke-width="1" opacity="0.1" />
  <line x1="0" y1="40" x2="800" y2="40" stroke="#1B4DFF" stroke-width="1" opacity="0.1" />
  <line x1="0" y1="80" x2="800" y2="80" stroke="#1B4DFF" stroke-width="1" opacity="0.1" />
  <line x1="0" y1="120" x2="800" y2="120" stroke="#1B4DFF" stroke-width="1" opacity="0.1" />
  <line x1="0" y1="160" x2="800" y2="160" stroke="#1B4DFF" stroke-width="1" opacity="0.1" />
  <line x1="0" y1="200" x2="800" y2="200" stroke="#1B4DFF" stroke-width="1" opacity="0.1" />
  <line x1="0" y1="240" x2="800" y2="240" stroke="#1B4DFF" stroke-width="1" opacity="0.1" />
  <line x1="0" y1="280" x2="800" y2="280" stroke="#1B4DFF" stroke-width="1" opacity="0.1" />
  <line x1="0" y1="320" x2="800" y2="320" stroke="#1B4DFF" stroke-width="1" opacity="0.1" />
  <line x1="0" y1="360" x2="800" y2="360" stroke="#1B4DFF" stroke-width="1" opacity="0.1" />
  <line x1="0" y1="400" x2="800" y2="400" stroke="#1B4DFF" stroke-width="1" opacity="0.1" />
  <line x1="0" y1="440" x2="800" y2="440" stroke="#1B4DFF" stroke-width="1" opacity="0.1" />
  <line x1="0" y1="480" x2="800" y2="480" stroke="#1B4DFF" stroke-width="1" opacity="0.1" />
  <line x1="0" y1="520" x2="800" y2="520" stroke="#1B4DFF" stroke-width="1" opacity="0.1" />
  <line x1="0" y1="560" x2="800" y2="560" stroke="#1B4DFF" stroke-width="1" opacity="0.1" />
  <line x1="0" y1="600" x2="800" y2="600" stroke="#1B4DFF" stroke-width="1" opacity="0.1" />
  <line x1="0" y1="640" x2="800" y2="640" stroke="#1B4DFF" stroke-width="1" opacity="0.1" />
  <line x1="0" y1="680" x2="800" y2="680" stroke="#1B4DFF" stroke-width="1" opacity="0.1" />
  <line x1="0" y1="720" x2="800" y2="720" stroke="#1B4DFF" stroke-width="1" opacity="0.1" />
  <line x1="0" y1="760" x2="800" y2="760" stroke="#1B4DFF" stroke-width="1" opacity="0.1" />
  <circle cx="400" cy="380" r="220" fill="none" stroke="#000000" stroke-width="8" opacity="0.7" />
  <circle cx="400" cy="380" r="160" fill="#1B4DFF" opacity="0.25" />
  <line x1="80" y1="720" x2="720" y2="80" stroke="#000000" stroke-width="14" opacity="0.9" />
  <line x1="120" y1="120" x2="680" y2="680" stroke="#1B4DFF" stroke-width="6" opacity="0.7" />
  <rect x="589.8374384338589" y="512.9239340855097" width="33.1880675240392" height="49.7821012860588" fill="#D62828" opacity="0.8" transform="rotate(253.52651199640857 606.4314721958785 529.5179678475293)" />
  <circle cx="453.96434688334455" cy="244.89791924247936" r="46.2710985276548" fill="none" stroke="#D62828" stroke-width="3" opacity="0.7" />
  <circle cx="457.37817638958296" cy="113.74335072788953" r="26.574109356518395" fill="#1B4DFF" opacity="0.85" />
  <polygon points="375.7242020163043,413.68679577803397 315.18715463455464,518.5431134138589 436.2612493980539,518.5431134138589" fill="#000000" opacity="0.85" transform="rotate(13.31951352146443 375.7242020163043 483.59100753525064)" />
  <circle cx="319.7357421181481" cy="524.7742087777644" r="14.287230017196208" fill="#F4D03F" opacity="0.85" />
  <rect x="596.1997344801667" y="614.8691966326137" width="66.3104796563998" height="99.4657194845997" fill="#1B4DFF" opacity="0.8" transform="rotate(151.7771971392858 629.3549743083666 648.0244364608136)" />
  <polygon points="583.4633278528842,530.3963618097819 559.4386072138694,572.0096192676597 607.4880484918989,572.0096192676597" fill="#FFFFFF" opacity="0.85" transform="rotate(74.44676345084952 583.4633278528842 558.1385334483671)" />
  <circle cx="322.02836474450964" cy="362.5010497408223" r="29.2881702047978" fill="#000000" opacity="0.85" />
  <circle cx="581.4056294833789" cy="178.1323461928713" r="29.499186838394774" fill="#FFFFFF" opacity="0.85" />
  <rect x="700.0257363868936" y="493.1865725696987" width="63.0025724095764" height="94.5038586143646" fill="#F4D03F" opacity="0.8" transform="rotate(65.9247767147433 731.5270225916819 524.6878587744869)" />
  <circle cx="225.62853444033036" cy="558.6731744833926" r="14.0582313095355" fill="#F4D03F" opacity="0.85" />
  <circle cx="189.17790251532057" cy="264.9715193791714" r="21.427757474926246" fill="#D62828" opacity="0.85" />
  <rect x="285.97380926040324" y="135.57177940746112" width="60.39704140750622" height="90.59556211125934" fill="#000000" opacity="0.8" transform="rotate(116.98351020854514 316.17232996415635 165.77030011121423)" />
  <polygon points="313.2585146076182,417.9965363671064 269.832396680059,493.2149854333175 356.68463253517746,493.2149854333175" fill="#000000" opacity="0.85" transform="rotate(320.64211240053226 313.2585146076182 468.1421690779138)" />
  <rect x="40" y="670" width="720" height="85" fill="#F4D03F" opacity="0.95" />
  <rect x="45" y="675" width="710" height="75" fill="#000000" opacity="0.9" />
  <text x="400" y="725" font-family="'Oswald', 'Arial Black', sans-serif" font-size="28" font-weight="900" fill="#D62828" text-anchor="middle" letter-spacing="3">CREATE A PHOTOREALISTIC COMMERCIAL A</text>
  <rect x="10" y="10" width="780" height="780" fill="none" stroke="#000000" stroke-width="6" />
</svg>