<?xml version="1.0" encoding="UTF-8"?>
<svg xmlns="http://www.w3.org/2000/svg" viewBox="0 0 800 800" width="800" height="800">
  <defs>
    <style>
      text { user-select: none; }
    </style>
  </defs>
  <rect x="0" y="0" width="800" height="800" fill="#F5F0E1" opacity="1" transform="rotate(0 400 400)" />
  <line x1="0" y1="0" x2="0" y2="800" stroke="#2A2A2A" stroke-width="0.5" opacity="0.06" />
  <line x1="40" y1="0" x2="40" y2="800" stroke="#2A2A2A" stroke-width="0.5" opacity="0.06" />
  <line x1="80" y1="0" x2="80" y2="800" stroke="#2A2A2A" stroke-width="0.5" opacity="0.06" />
  <line x1="120" y1="0" x2="120" y2="800" stroke="#2A2A2A" stroke-width="0.5" opacity="0.06" />
  <line x1="160" y1="0" x2="160" y2="800" stroke="#2A2A2A" stroke-width="0.5" opacity="0.06" />
  <line x1="200" y1="0" x2="200" y2="800" stroke="#2A2A2A" stroke-width="0.5" opacity="0.06" />
  <line x1="240" y1="0" x2="240" y2="800" stroke="#2A2A2A" stroke-width="0.5" opacity="0.06" />
  <line x1="280" y1="0" x2="280" y2="800" stroke="#2A2A2A" stroke-width="0.5" opacity="0.06" />
  <line x1="320" y1="0" x2="320" y2="800" stroke="#2A2A2A" stroke-width="0.5" opacity="0.06" />
  <line x1="360" y1="0" x2="360" y2="800" stroke="#2A2A2A" stroke-width="0.5" opacity="0.06" />
  <line x1="400" y1="0" x2="400" y2="800" stroke="#2A2A2A" stroke-width="0.5" opacity="0.06" />
  <line x1="440" y1="0" x2="440" y2="800" stroke="#2A2A2A" stroke-width="0.5" opacity="0.06" />
  <line x1="480" y1="0" x2="480" y2="800" stroke="#2A2A2A" stroke-width="0.5" opacity="0.06" />
  <line x1="520" y1="0" x2="520" y2="800" stroke="#2A2A2A" stroke-width="0.5" opacity="0.06" />
  <line x1="560" y1="0" x2="560" y2="800" stroke="#2A2A2A" stroke-width="0.5" opacity="0.06" />
  <line x1="600" y1="0" x2="600" y2="800" stroke="#2A2A2A" stroke-width="0.5" opacity="0.06" />
  <line x1="640" y1="0" x2="640" y2="800" stroke="#2A2A2A" stroke-width="0.5" opacity="0.06" />
  <line x1="680" y1="0" x2="680" y2="800" stroke="#2A2A2A" stroke-width="0.5" opacity="0.06" />
  <line x1="720" y1="0" x2="720" y2="800" stroke="#2A2A2A" stroke-width="0.5" opacity="0.06" />
  <line x1="760" y1="0" x2="760" y2="800" stroke="#2A2A2A" stroke-width="0.5" opacity="0.06" />
  <line x1="0" y1="0" x2="800" y2="0" stroke="#2A2A2A" stroke-width="0.5" opacity="0.06" />
  <line x1="0" y1="40" x2="800" y2="40" stroke="#2A2A2A" stroke-width="0.5" opacity="0.06" />
  <line x1="0" y1="80" x2="800" y2="80" stroke="#2A2A2A" stroke-width="0.5" opacity="0.06" />
  <line x1="0" y1="120" x2="800" y2="120" stroke="#2A2A2A" stroke-width="0.5" opacity="0.06" />
  <line x1="0" y1="160" x2="800" y2="160" stroke="#2A2A2A" stroke-width="0.5" opacity="0.06" />
  <line x1="0" y1="200" x2="800" y2="200" stroke="#2A2A2A" stroke-width="0.5" opacity="0.06" />
  <line x1="0" y1="240" x2="800" y2="240" stroke="#2A2A2A" stroke-width="0.5" opacity="0.06" />
  <line x1="0" y1="280" x2="800" y2="280" stroke="#2A2A2A" stroke-width="0.5" opacity="0.06" />
  <line x1="0" y1="320" x2="800" y2="320" stroke="#2A2A2A" stroke-width="0.5" opacity="0.06" />
  <line x1="0" y1="360" x2="800" y2="360" stroke="#2A2A2A" stroke-width="0.5" opacity="0.06" />
  <line x1="0" y1="400" x2="800" y2="400" stroke="#2A2A2A" stroke-width="0.5" opacity="0.06" />
  <line x1="0" y1="440" x2="800" y2="440" stroke="#2A2A2A" stroke-width="0.5" opacity="0.06" />
  <line x1="0" y1="480" x2="800" y2="480" stroke="#2A2A2A" stroke-width="0.5" opacity="0.06" />
  <line x1="0" y1="520" x2="800" y2="520" stroke="#2A2A2A" stroke-width="0.5" opacity="0.06" />
  <line x1="0" y1="560" x2="800" y2="560" stroke="#2A2A2A" stroke-width="0.5" opacity="0.06" />
  <line x1="0" y1="600" x2="800" y2="600" stroke="#2A2A2A" stroke-width="0.5" opacity="0.06" />
  <line x1="0" y1="640" x2="800" y2="640" stroke="#2A2A2A" stroke-width="0.5" opacity="0.06" />
  <line x1="0" y1="680" x2="800" y2="680" stroke="#2A2A2A" stroke-width="0.5" opacity="0.06" />
  <line x1="0" y1="720" x2="800" y2="720" stroke="#2A2A2A" stroke-width="0.5" opacity="0.06" />
  <line x1="0" y1="760" x2="800" y2="760" stroke="#2A2A2A" stroke-width="0.5" opacity="0.06" />
  <circle cx="144.3688167595232" cy="93.51507315726836" r="194.89478578672157" fill="#F5F0E1" opacity="0.15" />
  <circle cx="496.3880089336047" cy="39.232210265293766" r="197.5446518039202" fill="#1A1A2E" opacity="0.15" />
  <polygon points="627.4677801475552,623.4828379991192 478.6210223782391,881.3005477612141 776.3145379168714,881.3005477612141" fill="#C13B3B" opacity="0.15" transform="rotate(140.90438881444382 627.4677801475552 795.3613111738491)" />
  <rect x="373.9488407326743" y="432.7718754608119" width="273.66232729369364" height="174.3926864639839" fill="#E9C46A" opacity="0.15" transform="rotate(14.051161588065133 510.7800043795211 519.9682186928038)" />
  <line x1="559.8230670578366" y1="479.33186303808634" x2="57.99208266148159" y2="660.2240061061979" stroke="#D62828" stroke-width="3.7618121294681477" opacity="0.3" />
  <line x1="255.6784131228175" y1="99.35854731578347" x2="174.78667613463165" y2="180.87963708231217" stroke="#D62828" stroke-width="4.333493568546487" opacity="0.3" />
  <line x1="665.1104762836151" y1="404.1325976150419" x2="200.74293338710976" y2="219.9727587914031" stroke="#D62828" stroke-width="5.725481938506821" opacity="0.3" />
  <line x1="553.3042279429045" y1="108.65660703476905" x2="227.63681715066474" y2="161.83386728210232" stroke="#D62828" stroke-width="5.5336470034750285" opacity="0.3" />
  <line x1="144.27233807376408" y1="302.3306973982441" x2="392.82402163204364" y2="793.3092160134831" stroke="#D62828" stroke-width="2.0566588612405257" opacity="0.3" />
  <line x1="607.0512638909396" y1="193.64718035646882" x2="361.66218117849485" y2="730.8403495538142" stroke="#D62828" stroke-width="5.107061010577498" opacity="0.3" />
  <circle cx="386.81003460353475" cy="761.5529179483542" r="19.44804157233984" fill="none" stroke="#1A1A2E" stroke-width="3" opacity="0.9956227416395262" />
  <rect x="436.59763588490847" y="668.5565011269778" width="74.8292075353277" height="97.07162874948312" fill="#2A2A2A" opacity="0.5162919034520844" transform="rotate(306.9368179298325 474.0122396525723 717.0923155017193)" />
  <circle cx="210.2411905793103" cy="706.521925494662" r="37.28841039696439" fill="#1A1A2E" opacity="0.8744429156357523" />
  <circle cx="51.55924373575469" cy="239.01365349046273" r="36.8961225320576" fill="#E9C46A" opacity="0.6967305925667124" />
  <polygon points="771.2746135823602,359.70801149604563 680.3267430574112,517.2389650611996 862.2224841073091,517.2389650611996" fill="#D62828" opacity="0.840478371791653" transform="rotate(260.03211742733424 771.2746135823602 464.72864720614825)" />
  <path d="M516.71685777848,614.2911183839644 A54.19947397760103,54.19947397760103 0 1 1 608.8769681551008,563.2523061022599" fill="none" stroke="#C13B3B" stroke-width="5.806665508031534" opacity="0.7987033921058064" />
  <polygon points="700.0765768578455,717.268040017753 669.4120994798518,770.3820308572339 730.7410542358391,770.3820308572339" fill="#D62828" opacity="0.8185935321540091" transform="rotate(32.41495586755102 700.0765768578455 752.6773672440736)" />
  <rect x="641.0896814989601" y="390.70297898508215" width="108.09976304487785" height="78.06650147150178" fill="#C13B3B" opacity="0.9764109840561661" transform="rotate(203.96472153346167 695.139563021399 429.736229720833)" />
  <polygon points="471.6378740201792,342.3072095651429 403.5548390832275,460.2339444443895 539.7209089571309,460.2339444443895" fill="#D62828" opacity="0.5517044811397103" transform="rotate(111.00937041244688 471.6378740201792 420.925032817974)" />
  <rect x="386.07639455843633" y="399.35713475555116" width="40.428573781491394" height="39.388307532927875" fill="#1A1A2E" opacity="0.8154179836426438" transform="rotate(253.34803755705897 406.29068144918205 419.0512885220151)" />
  <path d="M132.0905201444613,125.79372269993037 L140.5670707381889,150.17967478772124 L166.37888756448467,150.7056798464508 L145.80586711247065,166.3030321434616 L153.2818966287803,191.01407323580173 L132.0905201444613,176.26781500206977 L110.8991436601423,191.01407323580173 L118.37517317645194,166.3030321434616 L97.80215272443792,150.7056798464508 L123.6139695507337,150.17967478772124 Z" fill="#C13B3B" opacity="0.5521144848438246" transform="rotate(295.7204443625455 132.0905201444613 161.8466457728871)" />
  <path d="M776.3922501300444,436.2087341720957 L791.0851095229821,478.47821174165745 L835.8261148542848,479.38996449797395 L800.1657960197406,506.4256910789809 L813.1243986123884,549.2586628412827 L776.3922501300444,523.6981832093322 L739.6601016477005,549.2586628412827 L752.6187042403483,506.4256910789809 L716.958385405804,479.38996449797395 L761.6993907371068,478.47821174165745 Z" fill="#1A1A2E" opacity="0.5550009567651434" transform="rotate(124.23260369436643 776.3922501300444 498.7011977701218)" />
  <polygon points="98.70999047968304,550.0164315511977 24.491291220239674,678.5707605225199 172.9286897391264,678.5707605225199" fill="#1A1A2E" opacity="0.5328567435575782" transform="rotate(341.5341546716015 98.70999047968304 635.7193175320791)" />
  <path d="M663.0358993688217,-36.27039503161106 L676.0294096091516,1.1102723364774931 L715.5957523738806,1.9165734422746503 L684.0598405708453,25.825397503704608 L695.5196749696464,63.704386360342426 L663.0358993688217,41.1001848932589 L630.5521237679969,63.704386360342426 L642.0119581667981,25.82539750370461 L610.4760463637627,1.9165734422746574 L650.0423891284918,1.1102723364774931 Z" fill="#D62828" opacity="0.5255693275308165" transform="rotate(172.5479962705979 663.0358993688217 18.99430491472462)" />
  <path d="M19.930557288369524,653.242521449803 A57.63649632167922,57.63649632167922 0 1 1 75.82254869768576,577.3745096177795" fill="none" stroke="#D62828" stroke-width="6.483563277051682" opacity="0.925885844609208" />
  <line x1="111.96298970653744" y1="706.8473208478762" x2="687.5944247393855" y2="21.487299171622677" stroke="#D62828" stroke-width="11.35499696232262" opacity="0.8" />
  <line x1="644.9328528356117" y1="645.4706295964938" x2="739.0995171244954" y2="706.6592679607354" stroke="#D62828" stroke-width="8.688988062713525" opacity="0.7" />
  <line x1="478.1229493390124" y1="590.9176002701087" x2="531.7304340963556" y2="483.81221990189795" stroke="#D62828" stroke-width="8.667006876474947" opacity="0.7" />
  <line x1="713.2536927036135" y1="791.4254374782148" x2="720.6867352409025" y2="970.9016164697011" stroke="#D62828" stroke-width="5.216738891139799" opacity="0.7" />
  <line x1="177.7758833807371" y1="462.90579169590626" x2="575.4792819208185" y2="94.63188259271715" stroke="#D62828" stroke-width="9.231903461094923" opacity="0.8" />
  <line x1="168.12101308445472" y1="218.09362457555105" x2="7.729250427272461" y2="213.7685172291865" stroke="#D62828" stroke-width="7.675684711820373" opacity="0.7" />
  <text x="400" y="400" font-family="'Arial Black', 'Impact', sans-serif" font-size="90" font-weight="900" fill="#D62828" text-anchor="middle" opacity="0.65" transform="rotate(5.974377775791655 400 400)">MAKE</text>
  <text x="450" y="460" font-family="'Arial Black', 'Impact', sans-serif" font-size="32" font-weight="900" fill="#E9C46A" text-anchor="middle" opacity="0.5" transform="rotate(10.974377775791655 450 460)">PICTURE</text>
  <rect x="243.4203550786293" y="255.29729562236398" width="2" height="2" fill="#2A2A2A" opacity="0.05" transform="rotate(0 244.4203550786293 256.297295622364)" />
  <rect x="119.75125263439288" y="342.5992312707471" width="2" height="2" fill="#2A2A2A" opacity="0.05" transform="rotate(0 120.75125263439288 343.5992312707471)" />
  <rect x="374.15254348287186" y="51.15020183174642" width="2" height="2" fill="#2A2A2A" opacity="0.05" transform="rotate(0 375.15254348287186 52.15020183174642)" />
  <rect x="178.53854265495636" y="456.49792655755255" width="2" height="2" fill="#2A2A2A" opacity="0.05" transform="rotate(0 179.53854265495636 457.49792655755255)" />
  <rect x="399.88067159426413" y="363.58484615655266" width="2" height="2" fill="#2A2A2A" opacity="0.05" transform="rotate(0 400.88067159426413 364.58484615655266)" />
  <rect x="254.76220591337471" y="649.5536047615003" width="2" height="2" fill="#2A2A2A" opacity="0.05" transform="rotate(0 255.76220591337471 650.5536047615003)" />
  <rect x="2.5682784622926915" y="752.5608308502848" width="2" height="2" fill="#2A2A2A" opacity="0.05" transform="rotate(0 3.5682784622926915 753.5608308502848)" />
  <rect x="505.5337918236698" y="223.49375137674943" width="2" height="2" fill="#2A2A2A" opacity="0.05" transform="rotate(0 506.5337918236698 224.49375137674943)" />
  <rect x="725.2781467338275" y="595.7654192568187" width="2" height="2" fill="#2A2A2A" opacity="0.05" transform="rotate(0 726.2781467338275 596.7654192568187)" />
  <rect x="223.1119443250615" y="397.89558378930565" width="2" height="2" fill="#2A2A2A" opacity="0.05" transform="rotate(0 224.1119443250615 398.89558378930565)" />
  <rect x="135.30706691912073" y="584.3654892836616" width="2" height="2" fill="#2A2A2A" opacity="0.05" transform="rotate(0 136.30706691912073 585.3654892836616)" />
  <rect x="754.6777931867814" y="242.266128454885" width="2" height="2" fill="#2A2A2A" opacity="0.05" transform="rotate(0 755.6777931867814 243.266128454885)" />
  <rect x="616.2268550638638" y="394.54073598481267" width="2" height="2" fill="#2A2A2A" opacity="0.05" transform="rotate(0 617.2268550638638 395.54073598481267)" />
  <rect x="707.2665935166335" y="715.1535499643426" width="2" height="2" fill="#2A2A2A" opacity="0.05" transform="rotate(0 708.2665935166335 716.1535499643426)" />
  <rect x="751.3316163679891" y="47.29812500236978" width="2" height="2" fill="#2A2A2A" opacity="0.05" transform="rotate(0 752.3316163679891 48.29812500236978)" />
  <rect x="300.3556173994102" y="22.789728088022613" width="2" height="2" fill="#2A2A2A" opacity="0.05" transform="rotate(0 301.3556173994102 23.789728088022613)" />
  <rect x="660.9912620533703" y="669.0675958686201" width="2" height="2" fill="#2A2A2A" opacity="0.05" transform="rotate(0 661.9912620533703 670.0675958686201)" />
  <rect x="728.6082943735198" y="509.764087505118" width="2" height="2" fill="#2A2A2A" opacity="0.05" transform="rotate(0 729.6082943735198 510.764087505118)" />
  <rect x="56.41127453567722" y="565.5790142169172" width="2" height="2" fill="#2A2A2A" opacity="0.05" transform="rotate(0 57.41127453567722 566.5790142169172)" />
  <rect x="597.274601226038" y="294.22867398109025" width="2" height="2" fill="#2A2A2A" opacity="0.05" transform="rotate(0 598.274601226038 295.22867398109025)" />
  <rect x="772.2987236390586" y="321.52037609403965" width="2" height="2" fill="#2A2A2A" opacity="0.05" transform="rotate(0 773.2987236390586 322.52037609403965)" />
  <rect x="492.74770368187404" y="660.1344842138082" width="2" height="2" fill="#2A2A2A" opacity="0.05" transform="rotate(0 493.74770368187404 661.1344842138082)" />
  <rect x="140.9345306784228" y="438.47726053522837" width="2" height="2" fill="#2A2A2A" opacity="0.05" transform="rotate(0 141.9345306784228 439.47726053522837)" />
  <rect x="550.7768464625759" y="418.99904264579504" width="2" height="2" fill="#2A2A2A" opacity="0.05" transform="rotate(0 551.7768464625759 419.99904264579504)" />
  <rect x="170.1519862213526" y="23.653532383882798" width="2" height="2" fill="#2A2A2A" opacity="0.05" transform="rotate(0 171.1519862213526 24.653532383882798)" />
  <rect x="84.83649382480338" y="653.7052306937298" width="2" height="2" fill="#2A2A2A" opacity="0.05" transform="rotate(0 85.83649382480338 654.7052306937298)" />
  <rect x="87.72151397720945" y="441.8732962668578" width="2" height="2" fill="#2A2A2A" opacity="0.05" transform="rotate(0 88.72151397720945 442.8732962668578)" />
  <rect x="537.1517208724171" y="256.83136383463426" width="2" height="2" fill="#2A2A2A" opacity="0.05" transform="rotate(0 538.1517208724171 257.83136383463426)" />
  <rect x="14.641687277388222" y="443.36409858506266" width="2" height="2" fill="#2A2A2A" opacity="0.05" transform="rotate(0 15.641687277388222 444.36409858506266)" />
  <rect x="414.87985300246623" y="476.0125207891717" width="2" height="2" fill="#2A2A2A" opacity="0.05" transform="rotate(0 415.87985300246623 477.0125207891717)" />
  <rect x="529.8364945989653" y="679.821381689939" width="2" height="2" fill="#2A2A2A" opacity="0.05" transform="rotate(0 530.8364945989653 680.821381689939)" />
  <rect x="673.9483577837116" y="78.8331205208863" width="2" height="2" fill="#2A2A2A" opacity="0.05" transform="rotate(0 674.9483577837116 79.8331205208863)" />
  <rect x="688.7588547283688" y="521.2541862673253" width="2" height="2" fill="#2A2A2A" opacity="0.05" transform="rotate(0 689.7588547283688 522.2541862673253)" />
  <rect x="13.04898448592261" y="549.7507515712061" width="2" height="2" fill="#2A2A2A" opacity="0.05" transform="rotate(0 14.04898448592261 550.7507515712061)" />
  <rect x="458.4003829533235" y="686.1121050748304" width="2" height="2" fill="#2A2A2A" opacity="0.05" transform="rotate(0 459.4003829533235 687.1121050748304)" />
  <rect x="540.2881560242474" y="131.55124879711104" width="2" height="2" fill="#2A2A2A" opacity="0.05" transform="rotate(0 541.2881560242474 132.55124879711104)" />
  <rect x="131.2074065513926" y="597.1934854512087" width="2" height="2" fill="#2A2A2A" opacity="0.05" transform="rotate(0 132.2074065513926 598.1934854512087)" />
  <rect x="474.9936078849699" y="523.835023055746" width="2" height="2" fill="#2A2A2A" opacity="0.05" transform="rotate(0 475.9936078849699 524.835023055746)" />
  <rect x="680.4032304977075" y="375.83488290566834" width="2" height="2" fill="#2A2A2A" opacity="0.05" transform="rotate(0 681.4032304977075 376.83488290566834)" />
  <rect x="347.1772801939345" y="651.0346378784242" width="2" height="2" fill="#2A2A2A" opacity="0.05" transform="rotate(0 348.1772801939345 652.0346378784242)" />
  <rect x="419.2166523121336" y="786.881764230058" width="2" height="2" fill="#2A2A2A" opacity="0.05" transform="rotate(0 420.2166523121336 787.881764230058)" />
  <rect x="557.1544577733507" y="112.46363839890428" width="2" height="2" fill="#2A2A2A" opacity="0.05" transform="rotate(0 558.1544577733507 113.46363839890428)" />
  <rect x="326.516728924242" y="246.9404599272973" width="2" height="2" fill="#2A2A2A" opacity="0.05" transform="rotate(0 327.516728924242 247.9404599272973)" />
  <rect x="357.81916052983587" y="726.896629838016" width="2" height="2" fill="#2A2A2A" opacity="0.05" transform="rotate(0 358.81916052983587 727.896629838016)" />
  <rect x="201.35379140296808" y="208.41136858994406" width="2" height="2" fill="#2A2A2A" opacity="0.05" transform="rotate(0 202.35379140296808 209.41136858994406)" />
  <rect x="522.0757847004746" y="384.18060419712697" width="2" height="2" fill="#2A2A2A" opacity="0.05" transform="rotate(0 523.0757847004746 385.18060419712697)" />
  <rect x="8.90671089498948" y="31.803408831312186" width="2" height="2" fill="#2A2A2A" opacity="0.05" transform="rotate(0 9.90671089498948 32.80340883131218)" />
  <rect x="157.92699273627414" y="16.377520006237905" width="2" height="2" fill="#2A2A2A" opacity="0.05" transform="rotate(0 158.92699273627414 17.377520006237905)" />
  <rect x="180.3364143195414" y="258.8297231725486" width="2" height="2" fill="#2A2A2A" opacity="0.05" transform="rotate(0 181.3364143195414 259.8297231725486)" />
  <rect x="733.717854864364" y="700.9381297745132" width="2" height="2" fill="#2A2A2A" opacity="0.05" transform="rotate(0 734.717854864364 701.9381297745132)" />
  <rect x="429.0456497178053" y="598.7846306988002" width="2" height="2" fill="#2A2A2A" opacity="0.05" transform="rotate(0 430.0456497178053 599.7846306988002)" />
  <rect x="176.03623833880673" y="108.40705728819758" width="2" height="2" fill="#2A2A2A" opacity="0.05" transform="rotate(0 177.03623833880673 109.40705728819758)" />
  <rect x="45.84500194663298" y="740.701830373309" width="2" height="2" fill="#2A2A2A" opacity="0.05" transform="rotate(0 46.84500194663298 741.701830373309)" />
  <rect x="102.76944974967499" y="107.15912750623168" width="2" height="2" fill="#2A2A2A" opacity="0.05" transform="rotate(0 103.76944974967499 108.15912750623168)" />
  <rect x="435.52515889413775" y="303.79385415087313" width="2" height="2" fill="#2A2A2A" opacity="0.05" transform="rotate(0 436.52515889413775 304.79385415087313)" />
  <rect x="653.817124444483" y="737.6669432822771" width="2" height="2" fill="#2A2A2A" opacity="0.05" transform="rotate(0 654.817124444483 738.6669432822771)" />
  <rect x="457.33542601981554" y="38.672770382527446" width="2" height="2" fill="#2A2A2A" opacity="0.05" transform="rotate(0 458.33542601981554 39.672770382527446)" />
  <rect x="781.9603672209104" y="768.7997136192396" width="2" height="2" fill="#2A2A2A" opacity="0.05" transform="rotate(0 782.9603672209104 769.7997136192396)" />
  <rect x="131.86849284262127" y="191.85213655974997" width="2" height="2" fill="#2A2A2A" opacity="0.05" transform="rotate(0 132.86849284262127 192.85213655974997)" />
  <rect x="466.38714346717745" y="448.65333243474674" width="2" height="2" fill="#2A2A2A" opacity="0.05" transform="rotate(0 467.38714346717745 449.65333243474674)" />
  <rect x="476.8514485277355" y="146.03020235570852" width="2" height="2" fill="#2A2A2A" opacity="0.05" transform="rotate(0 477.8514485277355 147.03020235570852)" />
  <rect x="711.3739197867396" y="662.4117064900724" width="2" height="2" fill="#2A2A2A" opacity="0.05" transform="rotate(0 712.3739197867396 663.4117064900724)" />
  <rect x="234.3430467495562" y="448.65436322257256" width="2" height="2" fill="#2A2A2A" opacity="0.05" transform="rotate(0 235.3430467495562 449.65436322257256)" />
  <rect x="592.6235539355836" y="109.7393328579467" width="2" height="2" fill="#2A2A2A" opacity="0.05" transform="rotate(0 593.6235539355836 110.7393328579467)" />
  <rect x="51.83722229018743" y="541.2668629878357" width="2" height="2" fill="#2A2A2A" opacity="0.05" transform="rotate(0 52.83722229018743 542.2668629878357)" />
  <rect x="413.7594361821561" y="314.2051282139041" width="2" height="2" fill="#2A2A2A" opacity="0.05" transform="rotate(0 414.7594361821561 315.2051282139041)" />
  <rect x="79.7728561050661" y="102.13174729191972" width="2" height="2" fill="#2A2A2A" opacity="0.05" transform="rotate(0 80.7728561050661 103.13174729191972)" />
  <rect x="235.47587958990502" y="477.2375057631259" width="2" height="2" fill="#2A2A2A" opacity="0.05" transform="rotate(0 236.47587958990502 478.2375057631259)" />
  <rect x="347.9497910356032" y="114.64306696193364" width="2" height="2" fill="#2A2A2A" opacity="0.05" transform="rotate(0 348.9497910356032 115.64306696193364)" />
  <rect x="39.84476068053505" y="389.1107040432074" width="2" height="2" fill="#2A2A2A" opacity="0.05" transform="rotate(0 40.84476068053505 390.1107040432074)" />
  <rect x="683.3510974150503" y="774.0143306492861" width="2" height="2" fill="#2A2A2A" opacity="0.05" transform="rotate(0 684.3510974150503 775.0143306492861)" />
  <rect x="792.2784103062652" y="209.46236499805525" width="2" height="2" fill="#2A2A2A" opacity="0.05" transform="rotate(0 793.2784103062652 210.46236499805525)" />
  <rect x="331.87158860542615" y="744.7492077818022" width="2" height="2" fill="#2A2A2A" opacity="0.05" transform="rotate(0 332.87158860542615 745.7492077818022)" />
  <rect x="263.64875330209003" y="529.8423621174512" width="2" height="2" fill="#2A2A2A" opacity="0.05" transform="rotate(0 264.64875330209003 530.8423621174512)" />
  <rect x="46.452587108698815" y="81.39348236876388" width="2" height="2" fill="#2A2A2A" opacity="0.05" transform="rotate(0 47.452587108698815 82.39348236876388)" />
  <rect x="75.06270075101934" y="730.7928781795299" width="2" height="2" fill="#2A2A2A" opacity="0.05" transform="rotate(0 76.06270075101934 731.7928781795299)" />
  <rect x="4.122939706808641" y="525.068256194952" width="2" height="2" fill="#2A2A2A" opacity="0.05" transform="rotate(0 5.122939706808641 526.068256194952)" />
  <rect x="627.7937894286108" y="245.95973367010237" width="2" height="2" fill="#2A2A2A" opacity="0.05" transform="rotate(0 628.7937894286108 246.95973367010237)" />
  <rect x="714.4462832981828" y="288.2844007313914" width="2" height="2" fill="#2A2A2A" opacity="0.05" transform="rotate(0 715.4462832981828 289.2844007313914)" />
  <rect x="780.8700723529025" y="345.73496532294314" width="2" height="2" fill="#2A2A2A" opacity="0.05" transform="rotate(0 781.8700723529025 346.73496532294314)" />
  <rect x="681.8745599784596" y="640.5382617936792" width="2" height="2" fill="#2A2A2A" opacity="0.05" transform="rotate(0 682.8745599784596 641.5382617936792)" />
  <rect x="138.81825994207017" y="252.93065334039989" width="2" height="2" fill="#2A2A2A" opacity="0.05" transform="rotate(0 139.81825994207017 253.93065334039989)" />
  <rect x="784.5077836849978" y="207.1886113395888" width="2" height="2" fill="#2A2A2A" opacity="0.05" transform="rotate(0 785.5077836849978 208.1886113395888)" />
  <rect x="412.06411095616966" y="2.9840001843366775" width="2" height="2" fill="#2A2A2A" opacity="0.05" transform="rotate(0 413.06411095616966 3.9840001843366775)" />
  <rect x="731.7600549971127" y="294.1148518338136" width="2" height="2" fill="#2A2A2A" opacity="0.05" transform="rotate(0 732.7600549971127 295.1148518338136)" />
  <rect x="112.48907188710035" y="261.1936586585812" width="2" height="2" fill="#2A2A2A" opacity="0.05" transform="rotate(0 113.48907188710035 262.1936586585812)" />
  <rect x="363.4318270635399" y="750.6564684097322" width="2" height="2" fill="#2A2A2A" opacity="0.05" transform="rotate(0 364.4318270635399 751.6564684097322)" />
  <rect x="246.64316890915933" y="709.4873096583149" width="2" height="2" fill="#2A2A2A" opacity="0.05" transform="rotate(0 247.64316890915933 710.4873096583149)" />
  <rect x="352.688421391111" y="483.3337321140183" width="2" height="2" fill="#2A2A2A" opacity="0.05" transform="rotate(0 353.688421391111 484.3337321140183)" />
  <rect x="469.11414760842786" y="415.2204903809402" width="2" height="2" fill="#2A2A2A" opacity="0.05" transform="rotate(0 470.11414760842786 416.2204903809402)" />
  <rect x="275.4447930202458" y="132.84965365492965" width="2" height="2" fill="#2A2A2A" opacity="0.05" transform="rotate(0 276.4447930202458 133.84965365492965)" />
  <rect x="558.5528639514355" y="594.5066730944689" width="2" height="2" fill="#2A2A2A" opacity="0.05" transform="rotate(0 559.5528639514355 595.5066730944689)" />
  <rect x="208.65654652208474" y="626.8731861903502" width="2" height="2" fill="#2A2A2A" opacity="0.05" transform="rotate(0 209.65654652208474 627.8731861903502)" />
  <rect x="678.8549249709712" y="782.5785923708646" width="2" height="2" fill="#2A2A2A" opacity="0.05" transform="rotate(0 679.8549249709712 783.5785923708646)" />
  <rect x="220.0172015046741" y="321.1036777871437" width="2" height="2" fill="#2A2A2A" opacity="0.05" transform="rotate(0 221.0172015046741 322.1036777871437)" />
  <rect x="487.99857918359305" y="423.68082358121893" width="2" height="2" fill="#2A2A2A" opacity="0.05" transform="rotate(0 488.99857918359305 424.68082358121893)" />
  <rect x="311.5617082248353" y="41.116575720048644" width="2" height="2" fill="#2A2A2A" opacity="0.05" transform="rotate(0 312.5617082248353 42.116575720048644)" />
  <rect x="557.0388575450143" y="492.99361139838436" width="2" height="2" fill="#2A2A2A" opacity="0.05" transform="rotate(0 558.0388575450143 493.99361139838436)" />
  <rect x="379.676213203854" y="737.490379050721" width="2" height="2" fill="#2A2A2A" opacity="0.05" transform="rotate(0 380.676213203854 738.490379050721)" />
  <rect x="161.7579635609309" y="763.0879472855218" width="2" height="2" fill="#2A2A2A" opacity="0.05" transform="rotate(0 162.7579635609309 764.0879472855218)" />
  <rect x="754.0140749779563" y="266.7148410032305" width="2" height="2" fill="#2A2A2A" opacity="0.05" transform="rotate(0 755.0140749779563 267.7148410032305)" />
  <rect x="109.47191457019" y="527.41189778955" width="2" height="2" fill="#2A2A2A" opacity="0.05" transform="rotate(0 110.47191457019 528.41189778955)" />
  <rect x="77.81812922978264" y="10.38042363021067" width="2" height="2" fill="#2A2A2A" opacity="0.05" transform="rotate(0 78.81812922978264 11.38042363021067)" />
  <rect x="263.49343179340786" y="393.30818308361535" width="2" height="2" fill="#2A2A2A" opacity="0.05" transform="rotate(0 264.49343179340786 394.30818308361535)" />
  <rect x="292.1492055738692" y="245.14899985984644" width="2" height="2" fill="#2A2A2A" opacity="0.05" transform="rotate(0 293.1492055738692 246.14899985984644)" />
  <rect x="27.751081070804755" y="557.0630046904699" width="2" height="2" fill="#2A2A2A" opacity="0.05" transform="rotate(0 28.751081070804755 558.0630046904699)" />
  <rect x="686.5208917964532" y="176.00580662861603" width="2" height="2" fill="#2A2A2A" opacity="0.05" transform="rotate(0 687.5208917964532 177.00580662861603)" />
  <rect x="654.064664024409" y="773.4861236003893" width="2" height="2" fill="#2A2A2A" opacity="0.05" transform="rotate(0 655.064664024409 774.4861236003893)" />
  <rect x="778.4405501509179" y="345.29264856718777" width="2" height="2" fill="#2A2A2A" opacity="0.05" transform="rotate(0 779.4405501509179 346.29264856718777)" />
  <rect x="434.5768575637082" y="232.52218836744368" width="2" height="2" fill="#2A2A2A" opacity="0.05" transform="rotate(0 435.5768575637082 233.52218836744368)" />
  <rect x="784.3565830924447" y="530.0223506358504" width="2" height="2" fill="#2A2A2A" opacity="0.05" transform="rotate(0 785.3565830924447 531.0223506358504)" />
  <rect x="441.8411058471168" y="555.3933139320912" width="2" height="2" fill="#2A2A2A" opacity="0.05" transform="rotate(0 442.8411058471168 556.3933139320912)" />
  <rect x="644.5119486759677" y="39.974461318919076" width="2" height="2" fill="#2A2A2A" opacity="0.05" transform="rotate(0 645.5119486759677 40.974461318919076)" />
  <rect x="279.0657599175036" y="122.7729084256042" width="2" height="2" fill="#2A2A2A" opacity="0.05" transform="rotate(0 280.0657599175036 123.7729084256042)" />
  <rect x="364.20392626063057" y="329.07220635774365" width="2" height="2" fill="#2A2A2A" opacity="0.05" transform="rotate(0 365.20392626063057 330.07220635774365)" />
  <rect x="303.0144688447505" y="147.4907527089796" width="2" height="2" fill="#2A2A2A" opacity="0.05" transform="rotate(0 304.0144688447505 148.4907527089796)" />
  <rect x="633.9501322791796" y="432.54069081333944" width="2" height="2" fill="#2A2A2A" opacity="0.05" transform="rotate(0 634.9501322791796 433.54069081333944)" />
  <rect x="582.0628201081564" y="704.269327573541" width="2" height="2" fill="#2A2A2A" opacity="0.05" transform="rotate(0 583.0628201081564 705.269327573541)" />
  <rect x="491.0607853185061" y="742.3463530704254" width="2" height="2" fill="#2A2A2A" opacity="0.05" transform="rotate(0 492.0607853185061 743.3463530704254)" />
  <rect x="651.9112301645594" y="328.9913917726351" width="2" height="2" fill="#2A2A2A" opacity="0.05" transform="rotate(0 652.9112301645594 329.9913917726351)" />
  <rect x="185.11722241181815" y="433.417667363169" width="2" height="2" fill="#2A2A2A" opacity="0.05" transform="rotate(0 186.11722241181815 434.417667363169)" />
  <rect x="331.4540852632965" y="199.99881112016712" width="2" height="2" fill="#2A2A2A" opacity="0.05" transform="rotate(0 332.4540852632965 200.99881112016712)" />
  <rect x="9.856664391666806" y="453.14709759623446" width="2" height="2" fill="#2A2A2A" opacity="0.05" transform="rotate(0 10.856664391666806 454.14709759623446)" />
  <rect x="461.30513224315484" y="513.9226357717818" width="2" height="2" fill="#2A2A2A" opacity="0.05" transform="rotate(0 462.30513224315484 514.9226357717818)" />
  <rect x="463.9632315523837" y="186.67429969335774" width="2" height="2" fill="#2A2A2A" opacity="0.05" transform="rotate(0 464.9632315523837 187.67429969335774)" />
  <rect x="227.47911853424253" y="68.5444282527418" width="2" height="2" fill="#2A2A2A" opacity="0.05" transform="rotate(0 228.47911853424253 69.5444282527418)" />
  <rect x="503.2652088681388" y="110.45057534017846" width="2" height="2" fill="#2A2A2A" opacity="0.05" transform="rotate(0 504.2652088681388 111.45057534017846)" />
  <rect x="732.7296836145058" y="665.1888426079389" width="2" height="2" fill="#2A2A2A" opacity="0.05" transform="rotate(0 733.7296836145058 666.1888426079389)" />
  <rect x="446.83856229457035" y="546.5845748192129" width="2" height="2" fill="#2A2A2A" opacity="0.05" transform="rotate(0 447.83856229457035 547.5845748192129)" />
  <rect x="678.0434986292486" y="543.147450998227" width="2" height="2" fill="#2A2A2A" opacity="0.05" transform="rotate(0 679.0434986292486 544.147450998227)" />
  <rect x="299.51670400321404" y="430.46924984791997" width="2" height="2" fill="#2A2A2A" opacity="0.05" transform="rotate(0 300.51670400321404 431.46924984791997)" />
  <rect x="616.7906580066287" y="458.63382324078907" width="2" height="2" fill="#2A2A2A" opacity="0.05" transform="rotate(0 617.7906580066287 459.63382324078907)" />
  <rect x="453.3065081698137" y="204.1900573773752" width="2" height="2" fill="#2A2A2A" opacity="0.05" transform="rotate(0 454.3065081698137 205.1900573773752)" />
  <rect x="444.03131949809176" y="620.769854220741" width="2" height="2" fill="#2A2A2A" opacity="0.05" transform="rotate(0 445.03131949809176 621.769854220741)" />
  <rect x="730.2105763764611" y="348.2144123754032" width="2" height="2" fill="#2A2A2A" opacity="0.05" transform="rotate(0 731.2105763764611 349.2144123754032)" />
  <rect x="583.4785950797327" y="497.10334197084967" width="2" height="2" fill="#2A2A2A" opacity="0.05" transform="rotate(0 584.4785950797327 498.10334197084967)" />
  <rect x="328.9557532241931" y="63.8623906448163" width="2" height="2" fill="#2A2A2A" opacity="0.05" transform="rotate(0 329.9557532241931 64.8623906448163)" />
  <rect x="734.6176912855864" y="101.15681609631442" width="2" height="2" fill="#2A2A2A" opacity="0.05" transform="rotate(0 735.6176912855864 102.15681609631442)" />
  <rect x="638.1278926129751" y="19.058682587709903" width="2" height="2" fill="#2A2A2A" opacity="0.05" transform="rotate(0 639.1278926129751 20.058682587709903)" />
  <rect x="642.481300011855" y="774.5076160818588" width="2" height="2" fill="#2A2A2A" opacity="0.05" transform="rotate(0 643.481300011855 775.5076160818588)" />
  <rect x="278.2128722123366" y="469.8657958930977" width="2" height="2" fill="#2A2A2A" opacity="0.05" transform="rotate(0 279.2128722123366 470.8657958930977)" />
  <rect x="352.5812392012638" y="475.89921831989176" width="2" height="2" fill="#2A2A2A" opacity="0.05" transform="rotate(0 353.5812392012638 476.89921831989176)" />
  <rect x="735.0438603980103" y="670.2985085244985" width="2" height="2" fill="#2A2A2A" opacity="0.05" transform="rotate(0 736.0438603980103 671.2985085244985)" />
  <rect x="13.496343422098164" y="389.88381577420137" width="2" height="2" fill="#2A2A2A" opacity="0.05" transform="rotate(0 14.496343422098164 390.88381577420137)" />
  <rect x="347.15483047700366" y="82.91957212680009" width="2" height="2" fill="#2A2A2A" opacity="0.05" transform="rotate(0 348.15483047700366 83.91957212680009)" />
  <rect x="289.61660458930226" y="667.496145113254" width="2" height="2" fill="#2A2A2A" opacity="0.05" transform="rotate(0 290.61660458930226 668.496145113254)" />
  <rect x="209.5403276871751" y="502.71666564576253" width="2" height="2" fill="#2A2A2A" opacity="0.05" transform="rotate(0 210.5403276871751 503.71666564576253)" />
  <rect x="646.5435621902681" y="111.45856476190002" width="2" height="2" fill="#2A2A2A" opacity="0.05" transform="rotate(0 647.5435621902681 112.45856476190002)" />
  <rect x="156.32148388687557" y="406.7605971374457" width="2" height="2" fill="#2A2A2A" opacity="0.05" transform="rotate(0 157.32148388687557 407.7605971374457)" />
  <rect x="171.64694410088634" y="418.41738401409646" width="2" height="2" fill="#2A2A2A" opacity="0.05" transform="rotate(0 172.64694410088634 419.41738401409646)" />
  <rect x="3" y="3" width="794" height="794" fill="none" stroke="#2A2A2A" stroke-width="6" />
  <rect x="15" y="15" width="770" height="770" fill="none" stroke="#D62828" stroke-width="2" />
</svg>